<svg xmlns="http://www.w3.org/2000/svg" viewBox="0 0 140.968 106">
  <defs>
    <style>
      .cls-1 {
        fill: #fff;
      }

      .cls-2 {
        fill: #ff8000;
      }
    </style>
  </defs>
  <g id="icon" transform="translate(0.01 -0.117)">
    <g id="Group_135" data-name="Group 135" transform="translate(95.528 0.117)">
      <g id="Group_132" data-name="Group 132" transform="translate(8.996 22.654)">
        <path id="Path_66" data-name="Path 66" class="cls-1" d="M100.6,25.846l31.458,67.111s3.146,0,3.146-2.1S106.892,22.7,106.892,22.7,103.746,25.846,100.6,25.846Z" transform="translate(-99.634 -21.674)"/>
        <g id="Group_131" data-name="Group 131">
          <path id="Path_67" data-name="Path 67" class="cls-2" d="M99.806,26.418c10.486,22.335,20.972,44.775,31.458,67.111a.983.983,0,0,0,.944.524c5.977-.21,3.67-5.033,2.307-8.494-3.146-7.969-6.5-15.939-9.857-23.908-5.558-13.108-11.115-26.32-16.673-39.427a1.1,1.1,0,0,0-1.678-.21,10.12,10.12,0,0,1-5.558,2.831c-1.363.21-1.363,2.307,0,2.1a12.106,12.106,0,0,0,7.026-3.46c-.524-.1-1.049-.1-1.678-.21,8.494,19.819,17.092,39.742,25.166,59.77.524,1.258,4.614,10.067,1.468,9.123.629.21-.1-.629-.419-1.363-.734-1.678-1.573-3.356-2.412-5.138-5.243-11.325-10.591-22.545-15.834-33.87-4.194-8.808-8.284-17.721-12.478-26.53C101.064,24.111,99.177,25.159,99.806,26.418Z" transform="translate(-99.679 -21.721)"/>
        </g>
      </g>
      <g id="Group_134" data-name="Group 134">
        <path id="Path_68" data-name="Path 68" class="cls-1" d="M92.1,1.2s3.146,4.194,2.1,12.583,9.437,15.729,12.583,5.243S92.1,1.2,92.1,1.2Z" transform="translate(-91.051 -0.064)"/>
        <g id="Group_133" data-name="Group 133">
          <path id="Path_69" data-name="Path 69" class="cls-2" d="M91.31,1.777c4.09,5.767,0,13.212,3.565,19.085,2.517,4.09,8.179,6.5,11.43,1.887C113.645,12.892,100.433,3.56,92.463.2,91.2-.32,90.681,1.672,91.939,2.2c6.082,2.517,18.455,10.171,13,18.77-1.887,2.936-5.033,2.517-7.131.21-2.1-2.2-2.517-5.033-2.307-7.969.315-3.985.21-9.018-2.307-12.478C92.358-.425,90.471.623,91.31,1.777Z" transform="translate(-91.1 -0.117)"/>
        </g>
      </g>
    </g>
    <g id="Group_151" data-name="Group 151" transform="translate(-0.009 17.936)">
      <g id="Group_137" data-name="Group 137">
        <path id="Path_70" data-name="Path 70" class="cls-1" d="M44.1,104.186s-28.312-2.1-39.847-33.555S12.644,19.25,39.907,18.2s80.742,33.555,61.868,74.451C85.312,128.409,69.268,60.145,44.1,104.186Z" transform="translate(0.054 -17.059)"/>
        <g id="Group_136" data-name="Group 136">
          <path id="Path_71" data-name="Path 71" class="cls-2" d="M44.147,103.19C24.328,101.512,8.914,83.791,3.88,65.755.105,52.123,2.412,37.338,13.947,28.215c9.542-7.655,23.069-10.381,35.023-8.179,22.545,4.194,47.4,21.5,54.213,44.146,3.46,11.325,1.678,26.425-6.711,35.338-5.033,5.348-10.7,1.783-15.519-1.887C75.71,93.647,70.362,88.4,63.441,87.775c-9.542-.839-15.939,8.6-20.133,15.834-.734,1.153,1.153,2.2,1.783,1.049,5.033-8.6,12.688-18.455,23.594-13.108,6.292,3.146,10.905,9.018,17.407,11.849,6.292,2.831,11.22-.734,14.576-6.187a41.918,41.918,0,0,0,3.67-35.862C96.157,38.806,70.886,21.189,47.5,17.624,22.441,13.849-2.621,31.256.21,57.995c2.412,22.335,20.343,45.4,43.936,47.292C45.51,105.392,45.51,103.295,44.147,103.19Z" transform="translate(0.009 -17.111)"/>
        </g>
      </g>
      <g id="Group_150" data-name="Group 150" transform="translate(7.979 9.007)">
        <g id="Group_139" data-name="Group 139" transform="translate(68.159 19.923)">
          <circle id="Ellipse_26" data-name="Ellipse 26" class="cls-1" cx="6.816" cy="6.816" r="6.816" transform="translate(1.049 1.049)"/>
          <g id="Group_138" data-name="Group 138">
            <path id="Path_72" data-name="Path 72" class="cls-2" d="M86.232,52.565c-.419,7.34-11.535,7.445-11.535,0,0-7.55,11.22-7.445,11.535,0,.1,1.363,2.2,1.363,2.1,0a7.865,7.865,0,1,0-8.284,7.865c4.614.21,7.969-3.46,8.284-7.865C88.434,51.2,86.337,51.2,86.232,52.565Z" transform="translate(-72.6 -44.7)"/>
          </g>
        </g>
        <g id="Group_141" data-name="Group 141" transform="translate(11.535 41.944)">
          <circle id="Ellipse_27" data-name="Ellipse 27" class="cls-1" cx="6.816" cy="6.816" r="6.816" transform="translate(1.049 1.049)"/>
          <g id="Group_140" data-name="Group 140">
            <path id="Path_73" data-name="Path 73" class="cls-2" d="M32.232,73.565c-.419,7.34-11.535,7.445-11.535,0,0-7.55,11.22-7.445,11.535,0,.1,1.363,2.2,1.363,2.1,0a7.865,7.865,0,1,0-8.284,7.865c4.614.21,7.969-3.46,8.284-7.865C34.434,72.2,32.337,72.2,32.232,73.565Z" transform="translate(-18.6 -65.7)"/>
          </g>
        </g>
        <g id="Group_143" data-name="Group 143" transform="translate(0 23.069)">
          <circle id="Ellipse_28" data-name="Ellipse 28" class="cls-1" cx="6.816" cy="6.816" r="6.816" transform="translate(1.049 1.049)"/>
          <g id="Group_142" data-name="Group 142">
            <path id="Path_74" data-name="Path 74" class="cls-2" d="M21.232,55.565C20.812,62.9,9.7,63.01,9.7,55.565c0-7.55,11.22-7.445,11.535,0,.1,1.363,2.2,1.363,2.1,0A7.991,7.991,0,0,0,15.465,47.7a7.87,7.87,0,0,0-.419,15.729c4.614.21,7.969-3.46,8.284-7.865C23.434,54.2,21.337,54.2,21.232,55.565Z" transform="translate(-7.6 -47.7)"/>
          </g>
        </g>
        <g id="Group_145" data-name="Group 145" transform="translate(9.437 3.146)">
          <circle id="Ellipse_29" data-name="Ellipse 29" class="cls-1" cx="6.816" cy="6.816" r="6.816" transform="translate(1.049 1.049)"/>
          <g id="Group_144" data-name="Group 144">
            <path id="Path_75" data-name="Path 75" class="cls-2" d="M30.232,36.565c-.419,7.34-11.535,7.445-11.535,0,0-7.55,11.22-7.445,11.535,0,.1,1.363,2.2,1.363,2.1,0a7.865,7.865,0,1,0-15.729,0,7.992,7.992,0,0,0,7.445,7.865c4.614.21,7.969-3.46,8.284-7.865C32.434,35.2,30.337,35.2,30.232,36.565Z" transform="translate(-16.6 -28.7)"/>
          </g>
        </g>
        <g id="Group_147" data-name="Group 147" transform="translate(31.458)">
          <circle id="Ellipse_30" data-name="Ellipse 30" class="cls-1" cx="6.816" cy="6.816" r="6.816" transform="translate(1.049 1.049)"/>
          <g id="Group_146" data-name="Group 146">
            <path id="Path_76" data-name="Path 76" class="cls-2" d="M51.232,33.565c-.419,7.34-11.535,7.445-11.535,0,0-7.55,11.22-7.445,11.535,0,.1,1.363,2.2,1.363,2.1,0a7.865,7.865,0,1,0-8.284,7.865c4.614.21,7.969-3.46,8.284-7.865C53.434,32.2,51.337,32.2,51.232,33.565Z" transform="translate(-37.6 -25.7)"/>
          </g>
        </g>
        <g id="Group_149" data-name="Group 149" transform="translate(53.479 6.292)">
          <circle id="Ellipse_31" data-name="Ellipse 31" class="cls-1" cx="6.816" cy="6.816" r="6.816" transform="translate(1.049 1.049)"/>
          <g id="Group_148" data-name="Group 148">
            <path id="Path_77" data-name="Path 77" class="cls-2" d="M72.232,39.565c-.419,7.34-11.535,7.445-11.535,0,0-7.55,11.22-7.445,11.535,0,.1,1.363,2.2,1.363,2.1,0a7.865,7.865,0,1,0-8.284,7.865c4.614.21,7.969-3.46,8.284-7.865C74.434,38.2,72.337,38.2,72.232,39.565Z" transform="translate(-58.6 -31.7)"/>
          </g>
        </g>
      </g>
    </g>
  </g>
</svg>
