<svg xmlns="http://www.w3.org/2000/svg" viewBox="0 0 127.396 70.38">
  <defs>
    <style>
      .cls-1 {
        fill: #ff8000;
      }

      .cls-2 {
        fill: #fff;
      }

      .cls-2, .cls-3 {
        stroke: #ff8000;
      }

      .cls-3, .cls-5 {
        fill: none;
      }

      .cls-4 {
        stroke: none;
      }
    </style>
  </defs>
  <g id="Kamera" transform="translate(-1076.045 -1907.586)">
    <g id="Group_35" data-name="Group 35" transform="translate(1076.026 1907.591)">
      <g id="Group_30" data-name="Group 30" transform="translate(0.019 16.28)">
        <g id="Group_29" data-name="Group 29">
          <path id="Path_12" data-name="Path 12" class="cls-1" d="M84.815,72.466h-49.7c-7.646,0-15.292.078-23.017,0-5.071-.078-9.363-2.575-9.675-8.192-.156-3.277,0-6.632,0-9.909V37.98c0-3.9-.78-8.817,2.107-11.937,4.057-4.447,13.732-2.731,19.038-2.731H81.85c4.369,0,8.973.624,10.611,5.54,1.248,3.667.468,8.739.468,12.562V58.968c.078,6.008,0,13.03-8.114,13.5-1.482.078-1.482,2.419,0,2.341,12.874-.7,10.533-15.214,10.533-24.187V34.157c0-4.369-.546-8.426-4.447-11.235-2.653-1.873-5.618-1.951-8.661-1.951H34.49c-7.8,0-15.6-.234-23.329,0C6.09,21.127,1.643,24.092.472,29.163-.386,32.752.238,37.043.238,40.71V58.422c0,3.667-.546,7.88,1.4,11.157,3.979,6.788,13.03,5.228,19.662,5.228H84.815A1.17,1.17,0,0,0,84.815,72.466Z" transform="translate(-0.019 -20.867)"/>
        </g>
      </g>
      <g id="Group_32" data-name="Group 32" transform="translate(93.048 16.324)">
        <g id="Group_31" data-name="Group 31">
          <path id="Path_13" data-name="Path 13" class="cls-1" d="M121.006,40.723c10.689-5.852,21.3-11.7,31.989-17.555-.624-.312-1.17-.7-1.795-1.014v51.5c.624-.312,1.17-.7,1.795-1.014-8.5-4.837-17.009-9.6-25.513-14.434a51.6,51.6,0,0,0-5.306-3.043,4.424,4.424,0,0,1-1.014-.624c1.014.624.312,1.326.468-.39.468-4.759,0-9.753,0-14.512a1.172,1.172,0,0,0-2.341,0V55.469a1.334,1.334,0,0,0,.546,1.014c10.689,6.008,21.3,12.016,31.989,18.1a1.183,1.183,0,0,0,1.795-1.014v-51.5a1.209,1.209,0,0,0-1.795-1.014c-10.689,5.852-21.3,11.7-31.989,17.555A1.207,1.207,0,0,0,121.006,40.723Z" transform="translate(-119.252 -20.923)"/>
        </g>
      </g>
      <g id="Group_34" data-name="Group 34" transform="translate(54.167 -0.005)">
        <g id="Group_33" data-name="Group 33">
          <path id="Path_14" data-name="Path 14" class="cls-1" d="M71.2,18.568C80.483,13.107,89.846,7.645,99.131,2.183c-.624-.312-1.17-.7-1.795-1.014V17.554l1.17-1.17H70.574a1.172,1.172,0,0,0,0,2.341H98.507a1.2,1.2,0,0,0,1.17-1.17V1.169A1.209,1.209,0,0,0,97.882.155C88.6,5.616,79.235,11.078,69.95,16.54A1.193,1.193,0,0,0,71.2,18.568Z" transform="translate(-69.419 0.005)"/>
        </g>
      </g>
    </g>
    <g id="detail" transform="translate(-236.955 669.761)">
      <g id="Ellipse_20" data-name="Ellipse 20" class="cls-2" transform="translate(1375 1262)">
        <circle class="cls-4" cx="3" cy="3" r="3"/>
        <circle class="cls-5" cx="3" cy="3" r="2.5"/>
      </g>
      <g id="Ellipse_21" data-name="Ellipse 21" class="cls-2" transform="translate(1385 1262)">
        <circle class="cls-4" cx="3" cy="3" r="3"/>
        <circle class="cls-5" cx="3" cy="3" r="2.5"/>
      </g>
      <line id="Line_22" data-name="Line 22" class="cls-3" y2="44" transform="translate(1431.5 1259.5)"/>
    </g>
  </g>
</svg>
