<svg xmlns="http://www.w3.org/2000/svg" viewBox="0 0 126.043 106.605">
  <defs>
    <style>
      .cls-1, .cls-4 {
        fill: #fff;
      }

      .cls-2 {
        fill: #ff8000;
      }

      .cls-3, .cls-6 {
        fill: none;
      }

      .cls-3, .cls-4 {
        stroke: #ff8000;
      }

      .cls-5 {
        stroke: none;
      }
    </style>
  </defs>
  <g id="komputer" transform="translate(-1153.999 -1225.218)">
    <g id="Group_23" data-name="Group 23" transform="translate(1154 1225.218)">
      <path id="Path_8" data-name="Path 8" class="cls-1" d="M123.54,89.317H3.445A1.841,1.841,0,0,1,1.6,87.473V3.545A1.841,1.841,0,0,1,3.445,1.7H123.54a1.841,1.841,0,0,1,1.845,1.845V87.407A1.817,1.817,0,0,1,123.54,89.317Z" transform="translate(-0.56 -0.726)"/>
      <g id="Group_22" data-name="Group 22">
        <path id="Path_9" data-name="Path 9" class="cls-2" d="M123,87.825H5.673a9.721,9.721,0,0,1-2.767,0c-1.383-.593-.922-2.5-.922-3.689V10.089a38.866,38.866,0,0,1,0-6.192c.461-2.635,4.084-1.713,6.258-1.713H117.269a30.111,30.111,0,0,1,4.875,0c2.833.461,1.647,5.27,1.647,7.51V83.872c0,1.186.593,3.623-1.12,4.019-1.252.264-.725,2.174.527,1.91,4.15-.856,2.569-8.893,2.569-11.858V51.329c0-15.745.659-31.687,0-47.432C125.57.01,122.605.339,119.641.339H16.608C12.194.339,7.715.076,3.3.339-.652.405.073,4.226.073,7.256V83.543c0,3.1-.2,6.061,3.755,6.192,4.875.2,9.882,0,14.757,0H123A.956.956,0,1,0,123,87.825Z" transform="translate(-0.021 -0.222)"/>
      </g>
    </g>
    <g id="Group_25" data-name="Group 25" transform="translate(1154.381 1298.657)">
      <g id="Group_24" data-name="Group 24">
        <path id="Path_10" data-name="Path 10" class="cls-2" d="M1.588,113.676H124.779a.989.989,0,0,0,0-1.976H1.588a.988.988,0,0,0,0,1.976Z" transform="translate(-0.6 -111.7)"/>
      </g>
    </g>
    <g id="Group_27" data-name="Group 27" transform="translate(1199.85 1312.821)">
      <g id="Group_26" data-name="Group 26">
        <path id="Path_11" data-name="Path 11" class="cls-2" d="M72.242,134.188c.2,4.941.659,11.133-2.174,15.284-1.779,2.635,2.174,2.437,4.15,2.5,9.552.4,19.1.2,28.591,0a.989.989,0,0,0,0-1.976c.329,0,.461.264.329,0a9.986,9.986,0,0,1-.791-2.108c-1.12-4.414-1.186-9.157-1.383-13.7a1.013,1.013,0,0,0-.988-.988H73.1a.989.989,0,0,0,0,1.976H99.976l-.988-.988c.132,4.941,0,10.8,1.845,15.547.329.922.856,2.174,1.976,2.24V150c-8.959.132-17.853.329-26.812.066-.791,0-4.348-.725-5.007-.329-.527.329-.461,1.91.725.922a5.054,5.054,0,0,0,1.252-2.24c1.515-4.348,1.318-9.684,1.12-14.23A.924.924,0,1,0,72.242,134.188Z" transform="translate(-69.619 -133.2)"/>
      </g>
    </g>
    <g id="detail">
      <line id="Line_20" data-name="Line 20" class="cls-3" y1="39" x2="71" transform="translate(1181.5 1242.5)"/>
      <line id="Line_21" data-name="Line 21" class="cls-3" y1="23" x2="41" transform="translate(1196.5 1255.5)"/>
      <g id="Ellipse_19" data-name="Ellipse 19" class="cls-4" transform="translate(1213 1303)">
        <circle class="cls-5" cx="4" cy="4" r="4"/>
        <circle class="cls-6" cx="4" cy="4" r="3.5"/>
      </g>
    </g>
  </g>
</svg>
