<svg xmlns="http://www.w3.org/2000/svg" viewBox="0 0 181.963 105.033">
  <defs>
    <style>
      .cls-1 {
        fill: #ff8000;
      }
    </style>
  </defs>
  <g id="Group_118" data-name="Group 118" transform="translate(0 0)">
    <g id="Group_101" data-name="Group 101" transform="translate(0 0.214)">
      <g id="Group_100" data-name="Group 100">
        <path id="Path_49" data-name="Path 49" class="cls-1" d="M23.4,60.069c-10.9.49-18.98-11.021-12.98-20.817a13.074,13.074,0,0,1,6.123-5.388,14.75,14.75,0,0,1,3.306-.98c.122,0,3.551-.367,2.694-1.1.367.367,0,3.061,0,3.551V61.048a.918.918,0,0,0,1.837,0V31.782c0-.49-.367-.857-.98-.98-8.939-.367-16.9,6.245-16.9,15.551,0,9.184,7.837,15.919,16.9,15.551C24.5,61.783,24.5,59.946,23.4,60.069Z" transform="translate(1.459 6.667)"/>
        <path id="Path_50" data-name="Path 50" class="cls-1" d="M0,1.18V104.039a.966.966,0,0,0,.98.98h180a.966.966,0,0,0,.98-.98V1.18a.966.966,0,0,0-.98-.98H.98a.918.918,0,1,0,0,1.837H177.555a16.046,16.046,0,0,0,3.429,0c-1.837.612-.367-1.837-.857.122a19.658,19.658,0,0,0,0,3.8V93.018c0,3.061-.49,6.612,0,9.674.122.612-.367,1.714.49.857.857-.98.122-.245-.367-.49-1.592-.612-4.531,0-6.123,0H8.2c-1.592,0-4.653-.612-6.123,0-.245.122-.612,0-.857,0,1.714-.367.367,1.714.857-.367.612-2.939,0-6.735,0-9.674V1.18C1.837-.045,0-.045,0,1.18Z" transform="translate(0 -0.2)"/>
      </g>
    </g>
    <g id="Group_103" data-name="Group 103" transform="translate(90.002 0)">
      <g id="Group_102" data-name="Group 102">
        <path id="Path_51" data-name="Path 51" class="cls-1" d="M73.5.852V103.711a.918.918,0,1,0,1.837,0V.852a.923.923,0,0,0-1.837,0Z" transform="translate(-73.5 -0.025)"/>
      </g>
    </g>
    <g id="Group_105" data-name="Group 105" transform="translate(0 7.607)">
      <g id="Group_104" data-name="Group 104">
        <path id="Path_52" data-name="Path 52" class="cls-1" d="M22.176,60.09c-11.143-.49-18-13.1-10.9-22.164A13.222,13.222,0,0,1,17.4,33.4c.612-.245,5.51-.98,4.9-1.592.367.367,0,3.306,0,3.8V58.008a11.819,11.819,0,0,1,0,2.082c-.245,1.469.735,0-.122,0a.918.918,0,0,0,0,1.837H23.4a.966.966,0,0,0,.98-.98V31.681c0-.49-.367-.857-.98-.98-8.816-.245-16.531,6-16.9,15.062S13.36,61.681,22.054,62.049A.988.988,0,0,0,22.176,60.09Z" transform="translate(1.457 -0.746)"/>
        <path id="Path_53" data-name="Path 53" class="cls-1" d="M0,7.171V95.336a.966.966,0,0,0,.98.98c24.49-.367,45.062-20.2,45.062-44.94S25.592,6.681.98,6.314a.918.918,0,1,0,0,1.837C23.021,8.518,42,25.294,43.96,47.458,45.8,69.132,30.735,89.336,9.429,93.622a30.281,30.281,0,0,1-4.653.612s-3.429.122-2.694.612c-.735-.49.245.98-.122,0-.367-.857,0-2.816,0-3.8v-84A.988.988,0,0,0,0,7.171Z" transform="translate(0 -6.237)"/>
      </g>
    </g>
    <g id="Group_107" data-name="Group 107" transform="translate(135.921 7.561)">
      <g id="Group_106" data-name="Group 106">
        <path id="Path_54" data-name="Path 54" class="cls-1" d="M155.083,7.18V88.732c0,.98.735,5.878,0,6.49,1.1-.98-2.816-1.1-2.939-1.1-1.592-.122-3.184-.367-4.653-.612a32.884,32.884,0,0,1-6.98-2.082,43.274,43.274,0,0,1-27.429-36.491c-2.2-25.1,17.878-46.532,42.98-46.9a.918.918,0,1,0,0-1.837C131.449,6.567,111,26.4,111,51.262,111,76,131.449,95.957,156.062,96.2a.966.966,0,0,0,.98-.98V7.057A.988.988,0,0,0,155.083,7.18Z" transform="translate(-111 -6.2)"/>
      </g>
    </g>
    <g id="Group_109" data-name="Group 109" transform="translate(72.736 33.888)">
      <g id="Group_108" data-name="Group 108">
        <path id="Path_55" data-name="Path 55" class="cls-1" d="M95.033,46.435c-.367,9.184-7.47,16.9-16.9,16.9a17.151,17.151,0,0,1-16.776-16.9A17.017,17.017,0,0,1,77.523,29.659c9.674-.49,17.143,7.347,17.511,16.776a.918.918,0,1,0,1.837,0C96.5,36.272,88.666,27.7,78.135,27.7a18.735,18.735,0,0,0,0,37.47c10.408,0,18.368-8.449,18.735-18.735A.918.918,0,1,0,95.033,46.435Z" transform="translate(-59.4 -27.7)"/>
      </g>
    </g>
    <g id="Group_111" data-name="Group 111" transform="translate(0 34.133)">
      <g id="Group_110" data-name="Group 110">
        <path id="Path_56" data-name="Path 56" class="cls-1" d="M7.959,47a15.842,15.842,0,0,0,9.429,14.327A16.7,16.7,0,0,0,21.8,62.554c.245,0,2.939.122,2.2-.49.245.245-.245,1.347,0,1.469.857.735-.49.612.857.122H6c-1.225,0-3.551-.49-4.776,0-.612.245.367,1.225.612.612.245-.367,0-1.1,0-1.592.49-4.531,0-9.551,0-14.082V32.921c0-.857.367-2.816,0-3.674-.245-.612-1.225.367-.612.612a7.4,7.4,0,0,0,2.327,0H24.613c.49,0-.735-.49-.735-.612a7.413,7.413,0,0,1,0,2.327c-.612,1.1.49-.122-.98,0a10.2,10.2,0,0,0-2.694.367C12.98,33.288,8.327,39.655,7.959,47A.918.918,0,1,0,9.8,47,14.018,14.018,0,0,1,24.858,33.288a1.053,1.053,0,0,0,.98-.98V28.88a.966.966,0,0,0-.98-.98H.98c-.612.122-.98.49-.98.98V64.391a.966.966,0,0,0,.98.98H24.858a.966.966,0,0,0,.98-.98V61.574a.966.966,0,0,0-.98-.98A13.85,13.85,0,0,1,9.8,47,.918.918,0,1,0,7.959,47Z" transform="translate(0 -27.9)"/>
      </g>
    </g>
    <g id="Group_113" data-name="Group 113" transform="translate(23.756 37.669)">
      <g id="Group_112" data-name="Group 112">
        <path id="Path_57" data-name="Path 57" class="cls-1" d="M32.992,46.354c-.245,4.9-2.449,9.306-6.735,11.755,0,0-5.265,2.571-4.9,2.694-.122-.122,0-1.1,0-1.347-.857-4.041,0-9.061,0-13.225s-.49-8.816,0-12.98a5.878,5.878,0,0,1,0-1.469c-.245.122,3.8,1.959,4.408,2.327a14.419,14.419,0,0,1,7.225,12.245.918.918,0,1,0,1.837,0A15.9,15.9,0,0,0,20.38,30.8c-.49-.122-.98.49-.98.98V61.048a.966.966,0,0,0,.98.98c8.327-1.225,14.082-7.347,14.449-15.674A.918.918,0,1,0,32.992,46.354Z" transform="translate(-19.4 -30.787)"/>
      </g>
    </g>
    <g id="Group_115" data-name="Group 115" transform="translate(154.779 35.48)">
      <g id="Group_114" data-name="Group 114">
        <path id="Path_58" data-name="Path 58" class="cls-1" d="M151.625,29.857V55.572c0,2.939-.735,6.857,0,9.674-.49-2.082,1.837-.245-.122-.857a5.944,5.944,0,0,0-2.082,0H133.38c-1.469,0-4.286-.612-5.633,0-.612.245.49.98.49.612a3.33,3.33,0,0,0,0-1.1,47.061,47.061,0,0,0,0-5.878V41.368c0-3.551.612-7.714,0-11.143-.122-.735-1.347.367-.49.612a9.923,9.923,0,0,0,2.694,0h22.041a.918.918,0,1,0,0-1.837h-25.1a.966.966,0,0,0-.98.98V65.491a.966.966,0,0,0,.98.98h25.1a.966.966,0,0,0,.98-.98V29.98C153.462,28.755,151.625,28.755,151.625,29.857Z" transform="translate(-126.4 -29)"/>
      </g>
    </g>
    <g id="Group_117" data-name="Group 117" transform="translate(141.431 38.786)">
      <g id="Group_116" data-name="Group 116">
        <path id="Path_59" data-name="Path 59" class="cls-1" d="M115.5,47.374c.367,8.572,6.857,15.551,15.674,15.674a15.674,15.674,0,1,0,0-31.348c-8.816,0-15.306,7.1-15.674,15.674a.918.918,0,1,0,1.837,0c.367-7.592,6-13.715,13.837-13.837a13.837,13.837,0,1,1,0,27.674c-7.714,0-13.47-6.245-13.837-13.837A.918.918,0,1,0,115.5,47.374Z" transform="translate(-115.5 -31.7)"/>
      </g>
    </g>
  </g>
</svg>
