<svg xmlns="http://www.w3.org/2000/svg" viewBox="0 0 102.133 102.133">
  <defs>
    <style>
      .cls-1 {
        fill: #fff;
      }

      .cls-2 {
        fill: #ff8000;
      }
    </style>
  </defs>
  <g id="logo_uks" data-name="logo uks" transform="translate(0 0)">
    <path id="Path_64" data-name="Path 64" class="cls-1" d="M30.015,100.812H71.8V71.8h29.015V30.015H71.8V1H30.015V30.015H1V71.8H30.015Z" transform="translate(0.161 0.161)"/>
    <g id="Group_128" data-name="Group 128">
      <path id="Path_65" data-name="Path 65" class="cls-2" d="M30.176,102.133H71.958a1.248,1.248,0,0,0,1.161-1.161V76.948c0-1.045.464-5.455-.58-4.41-1.045,1.161,2.9.58,3.946.58h24.489a1.248,1.248,0,0,0,1.161-1.161V30.176a1.248,1.248,0,0,0-1.161-1.161H76.948c-1.045,0-5.455-.464-4.41.58s.58-2.9.58-3.946V1.161A1.248,1.248,0,0,0,71.958,0H30.176a1.248,1.248,0,0,0-1.161,1.161V25.185c0,1.045-.464,5.455.58,4.41s-2.9-.58-3.946-.58H1.161A1.248,1.248,0,0,0,0,30.176V71.958a1.248,1.248,0,0,0,1.161,1.161H25.185c1.045,0,5.455.464,4.41-.58-1.161-1.045-.58,2.9-.58,3.946v24.489a1.161,1.161,0,0,0,2.321,0V71.958A1.248,1.248,0,0,0,30.176,70.8H19.034c-4.875,0-11.142-1.045-16.016,0-.464.116-1.161-.232-1.741,0-.464.116.58,1.509.928.812.464-.928,0-3.134,0-4.178V34.7c0-.928.464-3.25,0-4.178-.348-.7-1.393.58-.928.812s1.161-.116,1.741,0c4.758,1.045,11.026,0,16.016,0H30.176a1.248,1.248,0,0,0,1.161-1.161V19.034c0-4.875,1.045-11.142,0-16.016-.116-.464.232-1.161,0-1.741-.116-.464-1.509.58-.812.928.928.464,3.134,0,4.178,0H67.431c.928,0,3.25.464,4.178,0,.7-.348-.58-1.393-.812-.928s.116,1.161,0,1.741c-1.045,4.758,0,11.026,0,16.016V30.176a1.248,1.248,0,0,0,1.161,1.161H83.1c4.875,0,11.142,1.045,16.016,0,.464-.116,1.161.232,1.741,0,.464-.116-.58-1.509-.928-.812-.464.928,0,3.134,0,4.178V67.431c0,.928-.464,3.25,0,4.178.348.7,1.393-.58.928-.812s-1.161.116-1.741,0c-4.758-1.045-11.026,0-16.016,0H71.958A1.248,1.248,0,0,0,70.8,71.958V90.991c0,2.089-1.045,7.2,0,9.053.7,1.277.58-.348.812-.232a8.574,8.574,0,0,0-2.437,0h-39A1.161,1.161,0,0,0,30.176,102.133Z"/>
    </g>
  </g>
</svg>
