<svg xmlns="http://www.w3.org/2000/svg" viewBox="0 0 80.633 129.243">
  <defs>
    <style>
      .cls-1, .cls-3 {
        fill: #fff;
      }

      .cls-2 {
        fill: #ff8000;
      }

      .cls-3 {
        stroke: #ff8000;
      }

      .cls-4 {
        stroke: none;
      }

      .cls-5 {
        fill: none;
      }
    </style>
  </defs>
  <g id="microscope" transform="translate(0 0)">
    <g id="Group_38" data-name="Group 38" transform="translate(36.723 5.363)">
      <path id="Path_15" data-name="Path 15" class="cls-1" d="M89.555,16.555,74.687,53.441a3.418,3.418,0,0,1-4.4,1.887L67.71,54.3a3.418,3.418,0,0,1-1.887-4.4L80.691,13.01a3.418,3.418,0,0,1,4.4-1.887l2.573,1.029A3.418,3.418,0,0,1,89.555,16.555Z" transform="translate(-64.802 -10.024)"/>
      <g id="Group_37" data-name="Group 37">
        <path id="Path_16" data-name="Path 16" class="cls-2" d="M88.168,15.681,74.1,50.508a18.5,18.5,0,0,1-.743,1.887c-1.258,2.23-3.774,1.544-5.6.515-3.145-1.716-1.2-4.632-.286-7.034,2.8-6.977,5.6-13.954,8.464-20.873,1.372-3.374,2.745-6.805,4.117-10.179a18.32,18.32,0,0,1,.915-2.23c1.773-2.974,8.178-.515,7.206,3.088a.86.86,0,0,0,1.658.457,4.453,4.453,0,0,0-2.516-5.49c-1.658-.8-3.6-1.716-5.433-1.029-2.459.858-3.088,3.832-3.946,6Q72.613,28.491,67.409,41.472c-.972,2.459-2.23,4.918-2.974,7.434-1.2,3.889,2.745,6.748,6.348,6.862,3.2.114,4.117-2.745,5.09-5.147,1.544-3.832,3.088-7.72,4.689-11.552C83.65,31.465,86.738,23.8,89.826,16.2,90.227,15.109,88.568,14.652,88.168,15.681Z" transform="translate(-64.216 -9.378)"/>
      </g>
    </g>
    <g id="Group_40" data-name="Group 40" transform="translate(22.149 28.159)">
      <path id="Path_17" data-name="Path 17" class="cls-1" d="M70.753,60.365,54.626,100.282a6.348,6.348,0,0,1-8.178,3.488l-2.287-.915a6.348,6.348,0,0,1-3.488-8.178L56.8,54.761a6.348,6.348,0,0,1,8.178-3.488l2.287.915A6.3,6.3,0,0,1,70.753,60.365Z" transform="translate(-39.375 -49.923)"/>
      <g id="Group_39" data-name="Group 39">
        <path id="Path_18" data-name="Path 18" class="cls-2" d="M69.251,59.453C63.99,72.549,58.9,85.759,53.41,98.741a5.765,5.765,0,0,1-4.747,3.889c-2.859.286-6.977-1.773-7.892-4.518s.8-5.661,1.83-8.178c3.374-8.349,6.748-16.756,10.122-25.105,1.315-3.26,2.573-6.519,3.946-9.779,1.144-2.688,3.546-4.632,6.691-3.832,3.946.915,7.377,3.832,5.89,8.235-.343,1.029,1.315,1.487,1.658.457,1.944-5.833-3.774-11.151-9.607-10.637-4.117.4-5.661,3.66-6.977,6.977-3.832,9.55-7.72,19.043-11.552,28.593-1.2,2.917-2.459,5.776-3.546,8.75-1.944,5.433,2.116,9.264,7.034,10.58,4.575,1.2,7.549-2,9.093-5.776,1.6-3.889,3.145-7.835,4.747-11.723,3.66-8.921,7.206-17.842,10.808-26.763C71.367,58.882,69.709,58.481,69.251,59.453Z" transform="translate(-38.731 -49.24)"/>
      </g>
    </g>
    <g id="Group_42" data-name="Group 42" transform="translate(49.856 0)">
      <path id="Path_19" data-name="Path 19" class="cls-1" d="M101.562,11.059,89.9,6.369A2.615,2.615,0,0,1,88.466,3h0a2.615,2.615,0,0,1,3.374-1.43l11.666,4.689a2.615,2.615,0,0,1,1.43,3.374h0A2.587,2.587,0,0,1,101.562,11.059Z" transform="translate(-87.654 -0.593)"/>
      <g id="Group_41" data-name="Group 41">
        <path id="Path_20" data-name="Path 20" class="cls-2" d="M101.317,9.664c-2-.8-4.06-1.658-6.062-2.459-1.315-.515-2.631-1.087-3.946-1.6a6.4,6.4,0,0,1-1.258-.515c-1.258-.972-2.116-3.66,1.144-3.26,1.887.229,4.117,1.658,5.833,2.345,1.373.572,2.8,1.144,4.175,1.716a10.31,10.31,0,0,1,1.2.457c1.087.858,2.4,4.175-1.087,3.317a.86.86,0,0,0-.457,1.658c2.116.515,4.4-.572,4.632-2.917.172-2.059-1.258-3.088-2.917-3.774A86.575,86.575,0,0,0,91.595.171c-4.689-1.258-6.119,4.747-1.944,6.634,3.66,1.6,7.491,3.031,11.209,4.518C101.889,11.723,102.346,10.065,101.317,9.664Z" transform="translate(-87.18 0)"/>
      </g>
    </g>
    <g id="Group_44" data-name="Group 44" transform="translate(16.541 39.05)">
      <path id="Path_21" data-name="Path 21" class="cls-1" d="M66.035,69.8s25.62,3.26,22.76,23.275-18.3,54.9-18.3,54.9H48.765s-22.3,0-17.728-9.722,19.444,2.859,28.593-1.144S91.6,83.239,61,82.152Z" transform="translate(-29.564 -68.934)"/>
      <g id="Group_43" data-name="Group 43">
        <path id="Path_22" data-name="Path 22" class="cls-2" d="M65.4,70.009c-.343-.057,1.087.172,1.315.229,1.315.286,2.688.629,3.946.972a31.143,31.143,0,0,1,10.637,5.376c9.15,7.549,5.833,18.929,3.031,28.822a312.481,312.481,0,0,1-11.552,32.711l-2.23,5.318c-.286.629-1.43,2.345-1.315,3.031.114.743-1.2-.286.572-.057-.286-.057-.572.057-.858,0a43.8,43.8,0,0,0-4.747,0c-6,0-12.124.229-18.128-.057a36.951,36.951,0,0,1-10.58-1.773c-1.6-.572-3.546-1.372-4.4-2.917-1.2-2.059.286-4.975,2.116-6.119,4.06-2.573,10.522.515,14.7,1.544,3.832.972,8.692,1.944,12.3-.286,5.09-3.145,8.349-10.294,10.694-15.555,3.66-8.063,6.691-17.556,5.547-26.535-1.144-8.807-7.377-13.725-16.07-14.125a13.189,13.189,0,0,1,.8,1.087l4.975-12.352c.4-1.029-1.258-1.487-1.658-.457L59.506,81.218a.848.848,0,0,0,.8,1.087c25.906,1.2,11.437,39.059,1.544,50.5-3.774,4.346-8.635,3.889-13.954,2.516-4.747-1.2-12.009-4.461-16.413-.743-3.317,2.8-3.546,7.549.114,10.065,3.774,2.573,8.978,3.088,13.382,3.374,8.235.572,16.527.114,24.762.114a.892.892,0,0,0,.743-.4,353.186,353.186,0,0,0,14.182-37.515c1.315-4.346,2.573-8.75,3.488-13.21.743-3.66,1.372-7.434.686-11.151-1.2-6.291-5.947-10.923-11.495-13.782a37.106,37.106,0,0,0-12.066-3.774C64.309,68.179,64.309,69.895,65.4,70.009Z" transform="translate(-28.925 -68.285)"/>
      </g>
    </g>
    <g id="Group_46" data-name="Group 46" transform="translate(49.944 85.209)">
      <circle id="Ellipse_18" data-name="Ellipse 18" class="cls-1" cx="10.58" cy="10.58" r="10.58" transform="translate(0.858 0.858)"/>
      <g id="Group_45" data-name="Group 45">
        <path id="Path_23" data-name="Path 23" class="cls-2" d="M109.159,160.437a9.722,9.722,0,1,1-9.722-9.722,9.825,9.825,0,0,1,9.722,9.722c.057,1.087,1.773,1.087,1.716,0a11.437,11.437,0,1,0-11.437,11.437,11.584,11.584,0,0,0,11.437-11.437C110.932,159.351,109.216,159.351,109.159,160.437Z" transform="translate(-88 -149)"/>
      </g>
    </g>
    <g id="Group_48" data-name="Group 48" transform="translate(11.445 85.244)">
      <g id="Group_47" data-name="Group 47">
        <path id="Path_24" data-name="Path 24" class="cls-2" d="M59.979,157.09C47,154.4,34.074,151.772,21.092,149.084c-1.087-.229-1.544,1.43-.457,1.658,12.981,2.688,25.906,5.318,38.887,8.006,1.087.229,1.544-1.43.457-1.658Z" transform="translate(-20.014 -149.062)"/>
      </g>
    </g>
    <g id="Group_50" data-name="Group 50" transform="translate(0 117.233)">
      <g id="Group_49" data-name="Group 49">
        <path id="Path_25" data-name="Path 25" class="cls-2" d="M.858,217.009H79.776a.88.88,0,0,0,.858-.858V205.858a.88.88,0,0,0-.858-.858H.858a.88.88,0,0,0-.858.858v10.294a.859.859,0,0,0,1.716,0V205.858l-.858.858H79.776l-.858-.858v10.294l.858-.858H.858A.859.859,0,0,0,.858,217.009Z" transform="translate(0 -205)"/>
      </g>
    </g>
    <g id="Ellipse_22" data-name="Ellipse 22" class="cls-3" transform="translate(57.203 91.949)">
      <circle class="cls-4" cx="4.235" cy="4.235" r="4.235"/>
      <circle class="cls-5" cx="4.235" cy="4.235" r="3.735"/>
    </g>
  </g>
</svg>
