<svg xmlns="http://www.w3.org/2000/svg" viewBox="0 0 110.608 129.063">
  <defs>
    <style>
      .cls-1 {
        fill: #ff8000;
      }

      .cls-2 {
        fill: #fff;
      }
    </style>
  </defs>
  <g id="icon_mushola" data-name="icon mushola" transform="translate(-0.015 -0.638)">
    <g id="Group_121" data-name="Group 121" transform="translate(0.015 30.541)">
      <g id="Group_120" data-name="Group 120">
        <path id="Path_60" data-name="Path 60" class="cls-1" d="M54.785,42.6c5.193,9.727,13.97,17.846,22.966,23.99,9.142,6.217,19.016,12.214,25.525,21.43A31.784,31.784,0,0,1,109.42,105.8a35.013,35.013,0,0,1-1.243,9.947c-.512,2.121-1.536,4.1-2.048,6.144-1.536,6.071.439,1.024-.439,1.609-.8.512-3.73,0-4.681,0H8.269c-1.39,0-2.852.073-4.242,0,.951.073.439.8.219-.512-.293-1.609-1.024-3.218-1.39-4.827a42.389,42.389,0,0,1-.366-19.162c2.194-9.581,8.484-15.505,15.944-21.357C32.185,66.958,46.667,57.67,56.028,42.6c.512-.8-.731-1.536-1.243-.731C48.714,51.6,40.6,59.059,31.454,66.008c-4.315,3.291-8.7,6.509-13.019,9.874C13.827,79.465,9.073,82.9,5.782,87.8c-7.094,10.386-7.241,25.16-2.633,36.569a.8.8,0,0,0,.731.512H105.909a.873.873,0,0,0,.658-.366c6.217-14.043,5.7-28.524-4.461-40.446C92.817,73.1,79.36,67.4,68.974,57.743A64.19,64.19,0,0,1,56.028,41.872C55.589,41.067,54.346,41.8,54.785,42.6Z" transform="translate(-0.015 -41.523)"/>
      </g>
    </g>
    <g id="Group_123" data-name="Group 123" transform="translate(3.149 117.998)">
      <g id="Group_122" data-name="Group 122">
        <path id="Path_61" data-name="Path 61" class="cls-1" d="M107.426,171.266H11.1c-1.536,0-4.1-.512-5.632,0H5.1c1.609-.293.073,1.243.658-.073.8-1.682,0-5.559,0-7.46,0-.585.366-2.267-.366-1.609-.585.512-.439.366-.146.366a14.054,14.054,0,0,0,1.755,0h94.349a52.05,52.05,0,0,0,5.851,0c.585-.073-.366-.951-.512-.439a10.8,10.8,0,0,0,0,3.072v6.948a.732.732,0,0,0,1.463,0V161.831a.787.787,0,0,0-.731-.731H5.031a.787.787,0,0,0-.731.731v10.239a.787.787,0,0,0,.731.731H107.426C108.377,172.729,108.377,171.266,107.426,171.266Z" transform="translate(-4.3 -161.1)"/>
      </g>
    </g>
    <g id="Group_125" data-name="Group 125" transform="translate(38.429 0.638)">
      <path id="Path_62" data-name="Path 62" class="cls-2" d="M85.335,17.105A16.084,16.084,0,1,1,60.541,1.6,14.845,14.845,0,0,0,58.42,9.206,14.671,14.671,0,0,0,73.047,23.834,14.468,14.468,0,0,0,85.335,17.105Z" transform="translate(-52.742 -0.896)"/>
      <g id="Group_124" data-name="Group 124">
        <path id="Path_63" data-name="Path 63" class="cls-1" d="M84.4,16.7C82.716,27.086,71.6,33.523,61.945,28.4,51.632,22.918,51.413,8.582,60.7,2L59.678.976c-4.023,7.241-2.194,16.456,4.973,20.991,7.241,4.535,16.383,2.121,21.137-4.754.512-.8-.731-1.536-1.243-.731a14.136,14.136,0,0,1-19.089,4.242c-6.509-4.1-8.118-12.434-4.461-18.943C61.36,1.2,60.628.318,59.97.756,50.17,7.7,49.8,22.7,60.409,29.207c10.386,6.363,23.551-.439,25.452-12.141C86.008,16.116,84.545,15.75,84.4,16.7Z" transform="translate(-52.537 -0.638)"/>
      </g>
    </g>
  </g>
</svg>
